# xmcd
#
# Track frame offsets:
#	150
#	20449
#	40998
#	59774
#	94557
#	128303
#	148925
#	172468
#	197933
#	217226
#	243729
#
# Disc length: 3598 seconds
#
# Revision: 1
# Processed by: cddbd v1.5.2PL0 Copyright (c) Steve Scherf et al.
# Submitted via: audiograbber 1.83.01
#
DISCID=b00e0c0b
DTITLE=Delusions of Grandeur - LIVE and KICKIN'
DYEAR=2019
DGENRE=Blues Rock
TTITLE0=To The End Of The Road
TTITLE1=What Your Man Don't Know
TTITLE2=One Red Rose
TTITLE3=Peggy-O
TTITLE4=Down This Road Before
TTITLE5=Your Love Sets Me Free
TTITLE6=Wasted Tears
TTITLE7=Fast Car, '69
TTITLE8=Telecaster
TTITLE9=Damn That Rock and Roll
TTITLE10=Death Of A Surfer
EXTD=Phil Spillane - Lead vocals, guitar, harp. Mark Poley - Lead guitar. D. Sm
EXTD=ith - Bass. T-Bone Piazza - Drums, vocals. Recorded live at the Love Is Lo
EXTD=uder Festival, Brandford, CT 08/31/2019.  Tracks 1, 3, 6-8 by Phil Spilane
EXTD=Track 2 traditional. See back cover for additional credits.
EXTT0=
EXTT1=by R. Orsi, D. Smith, and J. Ethier.
EXTT2=
EXTT3=
EXTT4=by Phil Spillane, J. Gould, R. Snyder, D. Binsberger, and D. Hartzell.
EXTT5=
EXTT6=
EXTT7=
EXTT8=by Phil Spillane, J. Gould, R. Snyder, D. Binsgerger, and D. Hartzell.
EXTT9=by Phil Spillane, J. Gould, R. Snyder, D. Binsgerger, and D. Hartzell.
EXTT10=by Phile Spillane, and M. Poley.
PLAYORDER=
